<?xml version="1.0" encoding="utf-8"?>
<!-- Generator: Adobe Illustrator 18.0.0, SVG Export Plug-In . SVG Version: 6.00 Build 0)  -->
<!DOCTYPE svg PUBLIC "-//W3C//DTD SVG 1.1//EN" "http://www.w3.org/Graphics/SVG/1.1/DTD/svg11.dtd">
<svg version="1.1" id="Layer_1" xmlns="http://www.w3.org/2000/svg" xmlns:xlink="http://www.w3.org/1999/xlink" x="0px" y="0px"
	 viewBox="0 0 179.2 40.5" enable-background="new 0 0 179.2 40.5" xml:space="preserve">
<g>
	<path fill="#6D6E70" d="M29.6,18.1v-6.7h2v6.3C31,17.8,30.3,17.9,29.6,18.1 M31.6,24h-2v-3.1c0.6-0.1,1.3-0.2,2-0.2V24L31.6,24z
		 M30.7,8.3c-0.4,0-0.7-0.1-0.9-0.4c-0.3-0.2-0.4-0.6-0.4-0.9c0-0.4,0.1-0.7,0.4-0.9c0.3-0.2,0.6-0.4,0.9-0.4c0.4,0,0.7,0.1,0.9,0.4
		C31.9,6.3,32,6.6,32,7c0,0.4-0.1,0.7-0.4,0.9C31.3,8.1,31,8.3,30.7,8.3L30.7,8.3z"/>
	<path fill="#56C3CE" d="M69.6,6.4c0-0.7-0.1-1.2-0.4-1.7c-0.3-0.5-0.6-0.9-0.9-1.2C67.9,3.2,67.5,3,67,2.8
		c-0.5-0.1-0.9-0.2-1.4-0.2c-1.3,0-2.4,0.4-3.1,1.1c-0.8,0.7-1.2,1.7-1.2,2.9c0,0.6,0.1,1.1,0.3,1.5C61.7,8.6,62,9,62.3,9.4
		c0.3,0.4,0.6,0.8,1.1,1.1c0.4,0.3,0.8,0.6,1.3,0.8c1.7-0.6,2.9-1.3,3.8-2.1C69.2,8.5,69.6,7.6,69.6,6.4 M64.6,26.8
		c1,0,2-0.1,2.8-0.3c0.9-0.2,1.6-0.5,2.4-0.9c0.7-0.4,1.4-0.8,2-1.3c0.6-0.5,1.1-1,1.6-1.5c-0.8-1.3-1.6-2.4-2.3-3.3
		c-0.7-0.9-1.4-1.7-2.1-2.3c-0.7-0.7-1.4-1.2-2.2-1.7C66,15,65,14.6,64,14.2c-0.8,0.3-1.6,0.7-2.3,1.1c-0.7,0.4-1.3,0.9-1.8,1.4
		c-0.5,0.6-0.9,1.2-1.2,1.9c-0.3,0.7-0.4,1.6-0.4,2.6c0,0.9,0.2,1.7,0.5,2.4c0.3,0.7,0.8,1.3,1.4,1.7c0.6,0.5,1.3,0.8,2,1
		C62.9,26.7,63.7,26.8,64.6,26.8L64.6,26.8z M81.4,29.6c-0.8,0-1.4-0.1-2-0.3c-0.6-0.2-1.1-0.5-1.6-0.9c-0.5-0.4-1-0.8-1.4-1.4
		c-0.5-0.5-0.9-1.2-1.5-1.9c-0.5,0.6-1.1,1.1-1.9,1.7c-0.7,0.5-1.5,1-2.3,1.4c-0.9,0.4-1.8,0.7-2.8,1c-1,0.2-2.1,0.4-3.3,0.4
		c-1.4,0-2.8-0.2-4-0.5c-1.2-0.4-2.2-0.9-3.1-1.6c-0.9-0.7-1.5-1.6-2-2.6c-0.5-1-0.7-2.2-0.7-3.5c0-2,0.6-3.8,1.7-5.2
		c1.2-1.4,2.8-2.6,4.9-3.6c-0.4-0.3-0.8-0.6-1.2-1c-0.4-0.4-0.8-0.8-1.1-1.3c-0.3-0.5-0.6-1.1-0.8-1.7c-0.2-0.6-0.3-1.3-0.3-2
		c0-1.1,0.2-2,0.6-2.8c0.4-0.8,0.9-1.5,1.6-2.1c0.7-0.6,1.5-1,2.4-1.3C63.6,0.1,64.6,0,65.6,0c1,0,2,0.1,2.8,0.4
		c0.9,0.3,1.6,0.7,2.2,1.2c0.6,0.5,1.1,1.2,1.5,1.9c0.3,0.7,0.5,1.6,0.5,2.5c0,1.6-0.5,2.9-1.4,4c-0.9,1.1-2.3,2-4.1,2.7
		c0.9,0.4,1.8,0.8,2.5,1.3c0.8,0.5,1.4,1.1,2.1,1.7c0.6,0.6,1.2,1.3,1.8,2.1c0.5,0.7,1.1,1.5,1.6,2.3c1.1-1.5,1.9-3.2,2.4-5
		c0.5-1.8,0.8-3.7,0.8-5.7c0-0.5,0-1-0.1-1.4c-0.1-0.5-0.1-0.9-0.3-1.3h3.2c0.1,0.4,0.2,0.9,0.2,1.2c0,0.4,0,0.9,0.1,1.4
		c0,1.2-0.1,2.4-0.4,3.7c-0.3,1.2-0.6,2.4-1,3.6c-0.4,1.1-0.9,2.2-1.5,3.3c-0.6,1-1.2,2-1.8,2.9c0.5,0.6,0.9,1.2,1.3,1.7
		c0.4,0.5,0.8,0.9,1.2,1.2c0.4,0.3,0.8,0.6,1.2,0.7c0.4,0.2,0.9,0.2,1.4,0.2c0.4,0,0.8-0.1,1.2-0.2c0.4-0.1,0.8-0.2,1.3-0.4v3
		c-0.5,0.2-1,0.3-1.5,0.4C82.4,29.6,81.9,29.6,81.4,29.6L81.4,29.6z"/>
	<path fill="#6D6E70" d="M2,15.5v6.3h2.8c1.2,0,2.1-0.3,2.8-0.8c0.7-0.6,1-1.3,1-2.3c0-2.1-1.4-3.1-4.2-3.1H2L2,15.5z M2,8.1v5.6
		h2.1c1.1,0,2-0.3,2.6-0.8c0.6-0.5,1-1.3,1-2.3c0-1.7-1.1-2.5-3.3-2.5H2L2,8.1z M0,23.6V6.2h4.9c1.5,0,2.7,0.4,3.6,1.1
		C9.4,8.1,9.8,9,9.8,10.2c0,1-0.3,1.8-0.8,2.6c-0.5,0.7-1.3,1.2-2.2,1.6v0.1C8,14.5,8.9,15,9.6,15.7c0.7,0.7,1.1,1.7,1.1,2.9
		c0,1.5-0.5,2.7-1.6,3.6c-1.1,0.9-2.4,1.4-4,1.4H0L0,23.6z"/>
	<path fill="#6D6E70" d="M18.6,13.2c-0.3-0.3-0.8-0.4-1.5-0.4c-0.9,0-1.6,0.4-2.1,1.2c-0.6,0.8-0.9,1.9-0.9,3.3v6.3h-2V11.2h2v2.6h0
		c0.3-0.9,0.7-1.6,1.3-2c0.6-0.5,1.2-0.7,2-0.7c0.5,0,0.9,0.1,1.2,0.2V13.2L18.6,13.2z"/>
	<path fill="#6D6E70" d="M25.7,17.4l-3,0.4c-0.9,0.1-1.6,0.4-2.1,0.7c-0.5,0.3-0.7,0.9-0.7,1.7c0,0.6,0.2,1.1,0.6,1.5
		c0.4,0.4,1,0.6,1.7,0.6c1,0,1.8-0.3,2.4-1c0.6-0.7,1-1.6,1-2.6V17.4L25.7,17.4z M27.7,23.6h-2v-1.9h0c-0.9,1.5-2.1,2.2-3.8,2.2
		c-1.2,0-2.2-0.3-2.9-1c-0.7-0.7-1-1.5-1-2.6c0-2.3,1.4-3.7,4.1-4l3.7-0.5c0-2.1-0.9-3.2-2.6-3.2c-1.5,0-2.8,0.5-4,1.5v-2
		c1.2-0.8,2.6-1.2,4.2-1.2c2.9,0,4.4,1.5,4.4,4.6V23.6L27.7,23.6z"/>
	<path fill="#6D6E70" d="M35.7,21v2.6h-2v-3C34.4,20.7,35,20.9,35.7,21 M42,19.4v-2.9c0-2.6-1-4-2.9-4c-1,0-1.8,0.4-2.5,1.1
		c-0.7,0.7-1,1.7-1,2.8v1c-0.7-0.1-1.3-0.2-2-0.2v-6.1h2v2.1h0.1c0.9-1.6,2.3-2.3,4.1-2.3c1.4,0,2.4,0.4,3.1,1.3
		c0.7,0.9,1.1,2.1,1.1,3.8v4.2C43.4,19.9,42.7,19.7,42,19.4L42,19.4z M44,23.6h-2v-0.7C42.7,23.2,43.4,23.4,44,23.6L44,23.6z"/>
	<path fill="#6D6E70" d="M28.6,19.8c6.6-4,13.6,2.5,20.1,2.5c1.7,0,2.6-0.6,2.6-1.7c0-0.3-0.1-0.6-0.2-0.8c-0.2-0.2-0.4-0.4-0.6-0.6
		c-0.3-0.2-0.6-0.3-0.9-0.5c-0.3-0.1-0.7-0.3-1.1-0.4c-0.6-0.2-1-0.4-1.4-0.7c-0.4-0.2-0.8-0.5-1-0.7c-0.3-0.3-0.5-0.6-0.6-1
		c-0.1-0.4-0.2-0.8-0.2-1.2c0-0.6,0.1-1.1,0.4-1.5c0.3-0.4,0.6-0.8,1.1-1.1c0.4-0.3,1-0.5,1.5-0.7c0.6-0.2,1.2-0.2,1.8-0.2
		c1.1,0,2,0.2,2.9,0.6v2c-0.9-0.6-2-0.9-3.1-0.9c-0.4,0-0.7,0-1,0.1c-0.3,0.1-0.6,0.2-0.8,0.4c-0.2,0.2-0.4,0.3-0.5,0.5
		c-0.1,0.2-0.2,0.5-0.2,0.7c0,0.3,0.1,0.6,0.2,0.8c0.1,0.2,0.3,0.4,0.5,0.6c0.2,0.2,0.5,0.3,0.8,0.5c0.3,0.1,0.7,0.3,1.1,0.4
		c0.5,0.2,1,0.4,1.5,0.7c0.4,0.2,0.8,0.5,1.1,0.8c0.3,0.3,0.5,0.6,0.7,1c0.2,0.4,0.2,0.8,0.2,1.3c0,0.6-0.1,1.2-0.4,1.6
		c-0.3,0.5-0.6,0.8-1.1,1.1c-0.5,0.3-1,0.5-1.6,0.7c-0.6,0.1-1.2,0.2-1.9,0.2c-0.4,0-0.8,0-1.1,0C40.9,23.2,35.9,18.1,28.6,19.8"/>
	<polygon fill="#6D6E70" points="97.2,23.2 95.1,23.2 95.1,15.3 86.1,15.3 86.1,23.2 84.1,23.2 84.1,5.8 86.1,5.8 86.1,13.5 
		95.1,13.5 95.1,5.8 97.2,5.8 97.2,23.2 	"/>
	<path fill="#6D6E70" d="M106.5,16.9l-3,0.4c-0.9,0.1-1.6,0.4-2.1,0.7c-0.5,0.3-0.7,0.9-0.7,1.7c0,0.6,0.2,1.1,0.7,1.5
		c0.4,0.4,1,0.6,1.7,0.6c1,0,1.8-0.3,2.4-1c0.6-0.7,1-1.6,1-2.6V16.9L106.5,16.9z M108.5,23.2h-2v-1.9h0c-0.9,1.5-2.1,2.2-3.8,2.2
		c-1.2,0-2.2-0.3-2.9-1c-0.7-0.7-1-1.5-1-2.6c0-2.3,1.4-3.7,4.1-4l3.7-0.5c0-2.1-0.9-3.2-2.6-3.2c-1.5,0-2.8,0.5-4,1.5v-2
		c1.2-0.8,2.6-1.2,4.2-1.2c2.9,0,4.4,1.5,4.4,4.6V23.2L108.5,23.2z"/>
	<path fill="#6D6E70" d="M128,23.2h-2v-7.1c0-1.4-0.2-2.4-0.6-3c-0.4-0.6-1.1-0.9-2.1-0.9c-0.8,0-1.6,0.4-2.2,1.2
		c-0.6,0.8-0.9,1.7-0.9,2.8v7.1h-2v-7.4c0-2.4-0.9-3.7-2.8-3.7c-0.9,0-1.6,0.4-2.2,1.1c-0.6,0.7-0.8,1.7-0.8,2.9v7.1h-2V10.8h2v2h0
		c0.9-1.5,2.2-2.3,3.9-2.3c0.8,0,1.6,0.2,2.2,0.7c0.6,0.5,1.1,1.1,1.3,1.9c0.9-1.7,2.3-2.6,4.1-2.6c2.7,0,4.1,1.7,4.1,5.1V23.2
		L128,23.2z"/>
	<path fill="#6D6E70" d="M147.5,23.2h-2v-7.1c0-1.4-0.2-2.4-0.6-3c-0.4-0.6-1.1-0.9-2.1-0.9c-0.8,0-1.6,0.4-2.2,1.2
		c-0.6,0.8-0.9,1.7-0.9,2.8v7.1h-2v-7.4c0-2.4-0.9-3.7-2.8-3.7c-0.9,0-1.6,0.4-2.2,1.1c-0.6,0.7-0.8,1.7-0.8,2.9v7.1h-2V10.8h2v2h0
		c0.9-1.5,2.2-2.3,3.9-2.3c0.8,0,1.6,0.2,2.2,0.7c0.6,0.5,1.1,1.1,1.3,1.9c0.9-1.7,2.3-2.6,4.1-2.6c2.7,0,4.1,1.7,4.1,5.1V23.2
		L147.5,23.2z"/>
	<path fill="#6D6E70" d="M157.3,15.8c0-1.1-0.3-2-0.8-2.7c-0.5-0.6-1.3-1-2.3-1c-0.9,0-1.7,0.3-2.4,1c-0.7,0.7-1.1,1.5-1.2,2.6
		H157.3L157.3,15.8z M159.3,17.5h-8.8c0,1.4,0.3,2.5,1.1,3.2c4.7,3.8,21.3-6.6,27.6-2.9c-8.4-1.7-23.9,10.1-29.2,4
		c-1-1.1-1.5-2.7-1.5-4.8c0-1.9,0.6-3.5,1.6-4.7c1.1-1.2,2.5-1.8,4.1-1.8c1.6,0,2.9,0.5,3.8,1.6c0.9,1,1.3,2.5,1.3,4.4V17.5
		L159.3,17.5z"/>
	<path fill="#6D6E70" d="M162.4,22.7v0.6h-1.8L162.4,22.7L162.4,22.7z M166.9,12.8c-0.3-0.3-0.8-0.4-1.5-0.4c-0.9,0-1.6,0.4-2.1,1.2
		c-0.6,0.8-0.9,1.9-0.9,3.3v2.3l-2,0.5v-8.9h2v2.6h0.1c0.3-0.9,0.7-1.6,1.3-2c0.6-0.5,1.2-0.7,2-0.7c0.5,0,0.9,0.1,1.2,0.2V12.8
		L166.9,12.8z"/>
	<path fill="#6D6E70" d="M169.2,17.5c-0.3-0.1-0.6-0.3-0.8-0.4c-0.4-0.2-0.8-0.5-1-0.7c-0.3-0.3-0.5-0.6-0.6-1
		c-0.1-0.4-0.2-0.8-0.2-1.2c0-0.6,0.1-1.1,0.4-1.5c0.3-0.4,0.6-0.8,1.1-1.1c0.4-0.3,1-0.5,1.5-0.7c0.6-0.2,1.2-0.2,1.8-0.2
		c1.1,0,2,0.2,2.9,0.6v2c-0.9-0.6-2-0.9-3.1-0.9c-0.4,0-0.7,0-1,0.1c-0.3,0.1-0.6,0.2-0.8,0.4c-0.2,0.2-0.4,0.3-0.5,0.6
		c-0.1,0.2-0.2,0.5-0.2,0.7c0,0.3,0.1,0.6,0.2,0.8c0.1,0.2,0.3,0.4,0.5,0.6c0.2,0.2,0.5,0.3,0.8,0.5c0.3,0.1,0.7,0.3,1.1,0.4
		c0.4,0.1,0.7,0.3,1.1,0.4L169.2,17.5L169.2,17.5z M166.4,22.8v-1.3l0.9-0.3c0.8,0.4,1.7,0.7,2.7,0.7c1.7,0,2.6-0.6,2.6-1.7
		c0-0.2,0-0.3-0.1-0.5l2-0.6c0.1,0.3,0.1,0.6,0.1,0.9c0,0.6-0.1,1.2-0.4,1.6c-0.3,0.5-0.6,0.8-1.1,1.1c-0.5,0.3-1,0.5-1.6,0.7
		c-0.6,0.1-1.2,0.2-1.9,0.2C168.5,23.5,167.4,23.3,166.4,22.8L166.4,22.8z"/>
	<path fill="#919396" d="M110.9,38.7h0.8v-5h-0.8V38.7L110.9,38.7z M115.7,36.5c0-1.1-0.6-1.5-1.2-1.5c-0.5,0-0.9,0.3-1.1,0.6h0
		l0-0.5h-0.7c0,0.3,0,0.6,0,1v2.6h0.8v-2.2c0-0.6,0.4-0.9,0.8-0.9c0.5,0,0.7,0.4,0.7,0.9v2.1h0.8V36.5L115.7,36.5z M116.2,35.1v0.6
		h0.5v3h0.8v-3h0.8v-0.6h-0.8v-0.2c0-0.5,0.1-0.9,0.6-0.9c0.2,0,0.3,0,0.4,0.1l0.1-0.6c-0.1-0.1-0.3-0.1-0.6-0.1
		c-0.3,0-0.6,0.1-0.9,0.3c-0.4,0.4-0.4,1-0.4,1.4H116.2L116.2,35.1z M120.6,35c-0.1,0-0.1,0-0.2,0c-0.4,0-0.8,0.3-0.9,0.7h0l0-0.7
		h-0.7c0,0.3,0,0.7,0,1.1v2.5h0.8v-1.9c0-0.6,0.3-1.1,0.8-1.1c0.1,0,0.2,0,0.2,0V35L120.6,35z M123.7,36.5c0-0.8-0.3-1.5-1.4-1.5
		c-0.5,0-0.9,0.1-1.2,0.3l0.2,0.5c0.2-0.2,0.6-0.2,0.9-0.2c0.7,0,0.7,0.5,0.7,0.8c-1.2,0-2,0.4-2,1.3c0,0.6,0.4,1.1,1.1,1.1
		c0.5,0,0.8-0.2,1-0.5h0l0.1,0.4h0.7c0-0.2-0.1-0.6-0.1-0.9V36.5L123.7,36.5z M123,37.5c0,0.4-0.3,0.7-0.8,0.7
		c-0.3,0-0.5-0.2-0.5-0.6c0-0.6,0.7-0.8,1.3-0.8V37.5L123,37.5z M126.7,35.2c-0.2-0.1-0.5-0.2-0.9-0.2c-0.8,0-1.3,0.5-1.3,1.1
		c0,0.4,0.3,0.8,0.9,1c0.4,0.2,0.6,0.3,0.6,0.6c0,0.3-0.2,0.5-0.6,0.5c-0.3,0-0.6-0.1-0.8-0.2l-0.2,0.6c0.2,0.1,0.6,0.2,1,0.2
		c0.8,0,1.4-0.4,1.4-1.1c0-0.5-0.3-0.9-0.9-1.1c-0.4-0.2-0.6-0.3-0.6-0.6c0-0.2,0.2-0.4,0.5-0.4c0.3,0,0.5,0.1,0.7,0.2L126.7,35.2
		L126.7,35.2z M127.7,35.1h-0.5v0.6h0.5v1.9c0,0.5,0.1,0.8,0.3,1c0.2,0.2,0.4,0.3,0.7,0.3c0.3,0,0.5,0,0.6-0.1l0-0.6
		c-0.1,0-0.2,0-0.3,0c-0.3,0-0.5-0.2-0.5-0.7v-1.8h0.9v-0.6h-0.9v-0.9l-0.8,0.2V35.1L127.7,35.1z M131.8,35c-0.1,0-0.1,0-0.2,0
		c-0.4,0-0.8,0.3-0.9,0.7h0l0-0.7H130c0,0.3,0,0.7,0,1.1v2.5h0.8v-1.9c0-0.6,0.3-1.1,0.8-1.1c0.1,0,0.2,0,0.2,0V35L131.8,35z
		 M135.3,35.1h-0.8v2.2c0,0.5-0.4,0.8-0.8,0.8c-0.5,0-0.7-0.4-0.7-1v-2h-0.8v2.2c0,1.2,0.5,1.5,1.2,1.5c0.6,0,0.9-0.3,1.1-0.6h0
		l0,0.5h0.7c0-0.3,0-0.6,0-1V35.1L135.3,35.1z M138.6,38c-0.2,0.1-0.4,0.1-0.7,0.1c-0.6,0-1.1-0.5-1.1-1.3c0-0.7,0.4-1.3,1.1-1.3
		c0.3,0,0.5,0.1,0.7,0.1l0.2-0.6c-0.2-0.1-0.5-0.2-0.8-0.2c-1.2,0-1.9,0.8-1.9,1.9c0,1.1,0.7,1.8,1.7,1.8c0.4,0,0.8-0.1,0.9-0.2
		L138.6,38L138.6,38z M139.6,35.1h-0.5v0.6h0.5v1.9c0,0.5,0.1,0.8,0.3,1c0.2,0.2,0.4,0.3,0.7,0.3c0.3,0,0.5,0,0.6-0.1l0-0.6
		c-0.1,0-0.2,0-0.3,0c-0.3,0-0.5-0.2-0.5-0.7v-1.8h0.9v-0.6h-0.9v-0.9l-0.8,0.2V35.1L139.6,35.1z M144.8,35.1H144v2.2
		c0,0.5-0.4,0.8-0.8,0.8c-0.5,0-0.7-0.4-0.7-1v-2h-0.8v2.2c0,1.2,0.5,1.5,1.2,1.5c0.6,0,0.9-0.3,1.1-0.6h0l0,0.5h0.7
		c0-0.3,0-0.6,0-1V35.1L144.8,35.1z M147.6,35c-0.1,0-0.1,0-0.2,0c-0.4,0-0.8,0.3-0.9,0.7h0l0-0.7h-0.7c0,0.3,0,0.7,0,1.1v2.5h0.8
		v-1.9c0-0.6,0.3-1.1,0.8-1.1c0.1,0,0.2,0,0.2,0V35L147.6,35z M150.7,38c-0.2,0.1-0.5,0.2-0.9,0.2c-0.6,0-1.1-0.3-1.1-1.1h2.3
		c0-0.1,0-0.2,0-0.3c0-0.9-0.4-1.7-1.4-1.7c-1,0-1.6,0.9-1.6,1.9c0,1.1,0.6,1.8,1.7,1.8c0.5,0,0.9-0.1,1.2-0.2L150.7,38L150.7,38z
		 M148.7,36.5c0-0.4,0.3-1,0.8-1c0.6,0,0.8,0.5,0.8,1H148.7L148.7,36.5z"/>
	<polygon fill="#56C3CE" points="107.7,40.5 108.3,40.5 108.3,33.1 107.7,33.1 107.7,40.5 	"/>
	<path fill="#919396" d="M65.4,38.7c0.3,0,0.6,0.1,1.1,0.1c0.9,0,1.6-0.2,2.1-0.7c0.4-0.4,0.7-1.1,0.7-2v0c0-1.1-0.4-2.4-2.6-2.4
		c-0.5,0-0.9,0-1.3,0.1V38.7L65.4,38.7z M66.2,34.3c0.1,0,0.3-0.1,0.6-0.1c1.1,0,1.7,0.6,1.7,1.9c0,1.4-0.7,2.1-1.8,2
		c-0.2,0-0.4,0-0.5,0V34.3L66.2,34.3z M72.5,38c-0.2,0.1-0.5,0.2-0.9,0.2c-0.6,0-1.1-0.3-1.1-1.1h2.3c0-0.1,0-0.2,0-0.3
		c0-0.9-0.4-1.7-1.4-1.7c-1,0-1.6,0.9-1.6,1.9c0,1.1,0.6,1.8,1.7,1.8c0.5,0,0.9-0.1,1.2-0.2L72.5,38L72.5,38z M70.5,36.5
		c0-0.4,0.3-1,0.8-1c0.6,0,0.8,0.5,0.8,1H70.5L70.5,36.5z M75.7,35.1L75.1,37c-0.1,0.3-0.2,0.6-0.2,0.9h0c-0.1-0.3-0.1-0.6-0.2-0.9
		L74,35.1h-0.8l1.3,3.6h0.7l1.3-3.6H75.7L75.7,35.1z M79.6,38c-0.2,0.1-0.5,0.2-0.9,0.2c-0.6,0-1.1-0.3-1.1-1.1h2.3
		c0-0.1,0-0.2,0-0.3c0-0.9-0.4-1.7-1.4-1.7c-1,0-1.6,0.9-1.6,1.9c0,1.1,0.6,1.8,1.7,1.8c0.5,0,0.9-0.1,1.1-0.2L79.6,38L79.6,38z
		 M77.6,36.5c0-0.4,0.3-1,0.8-1c0.6,0,0.8,0.5,0.8,1H77.6L77.6,36.5z M81.4,33.4h-0.8v5.3h0.8V33.4L81.4,33.4z M83.8,35
		c-1,0-1.7,0.7-1.7,1.9c0,1.2,0.7,1.9,1.7,1.9c0.8,0,1.7-0.6,1.7-1.9C85.5,35.7,84.8,35,83.8,35L83.8,35z M84.7,36.9
		c0,0.7-0.3,1.3-0.9,1.3c-0.6,0-0.9-0.6-0.9-1.3c0-0.6,0.2-1.3,0.9-1.3C84.4,35.6,84.7,36.3,84.7,36.9L84.7,36.9z M86.9,35.6l0-0.6
		h-0.7c0,0.3,0,0.7,0,1.2v3.9H87v-1.9h0c0.2,0.3,0.5,0.5,1,0.5c0.8,0,1.5-0.6,1.5-1.9c0-1.1-0.6-1.8-1.4-1.8
		C87.6,35,87.2,35.2,86.9,35.6L86.9,35.6L86.9,35.6z M87,36.6c0-0.5,0.4-1,0.8-1c0.6,0,0.9,0.6,0.9,1.3c0,0.7-0.3,1.3-0.9,1.3
		c-0.4,0-0.8-0.3-0.8-0.9V36.6L87,36.6z M95.2,36.5c0-1.1-0.6-1.5-1.1-1.5c-0.5,0-0.9,0.3-1.1,0.7h0c-0.2-0.4-0.5-0.7-1-0.7
		c-0.6,0-0.9,0.3-1.1,0.6h0l0-0.5h-0.7c0,0.3,0,0.6,0,1v2.6H91v-2.2c0-0.6,0.4-0.9,0.7-0.9c0.4,0,0.6,0.4,0.6,0.9v2.2h0.7v-2.2
		c0-0.5,0.4-0.8,0.7-0.8c0.5,0,0.7,0.4,0.7,1v2.1h0.7V36.5L95.2,36.5z M98.7,38c-0.2,0.1-0.5,0.2-0.9,0.2c-0.6,0-1.1-0.3-1.1-1.1H99
		c0-0.1,0-0.2,0-0.3c0-0.9-0.4-1.7-1.4-1.7c-1,0-1.6,0.9-1.6,1.9c0,1.1,0.6,1.8,1.7,1.8c0.5,0,0.9-0.1,1.2-0.2L98.7,38L98.7,38z
		 M96.7,36.5c0-0.4,0.3-1,0.8-1c0.6,0,0.8,0.5,0.8,1H96.7L96.7,36.5z M102.7,36.5c0-1.1-0.6-1.5-1.2-1.5c-0.5,0-0.9,0.3-1.1,0.6h0
		l0-0.5h-0.7c0,0.3,0,0.6,0,1v2.6h0.8v-2.2c0-0.6,0.4-0.9,0.8-0.9c0.5,0,0.7,0.4,0.7,0.9v2.1h0.8V36.5L102.7,36.5z M103.8,35.1h-0.5
		v0.6h0.5v1.9c0,0.5,0.1,0.8,0.3,1c0.2,0.2,0.4,0.3,0.7,0.3c0.3,0,0.5,0,0.6-0.1l0-0.6c-0.1,0-0.2,0-0.3,0c-0.3,0-0.5-0.2-0.5-0.7
		v-1.8h0.9v-0.6h-0.9v-0.9l-0.8,0.2V35.1L103.8,35.1z"/>
	<polygon fill="#56C3CE" points="62.2,40.5 62.8,40.5 62.8,33.1 62.2,33.1 62.2,40.5 	"/>
	<path fill="#919396" d="M30.4,36.3c0.5-0.2,0.9-0.6,0.9-1.3c0-0.4-0.1-0.8-0.4-1c-0.3-0.3-0.8-0.4-1.4-0.4c-0.5,0-0.9,0-1.2,0.1v5
		H29v-2.1h0.5c0.5,0,0.8,0.3,0.9,0.9c0.1,0.6,0.2,1.1,0.3,1.2h0.8c-0.1-0.2-0.2-0.7-0.4-1.4C30.9,36.8,30.7,36.4,30.4,36.3
		L30.4,36.3L30.4,36.3z M29,36v-1.7c0.1,0,0.3,0,0.5,0c0.5,0,1,0.2,1,0.9c0,0.5-0.4,0.9-1,0.9H29L29,36z M34.6,38
		c-0.2,0.1-0.5,0.2-0.9,0.2c-0.6,0-1.1-0.3-1.1-1.1h2.3c0-0.1,0-0.2,0-0.3c0-0.9-0.4-1.7-1.4-1.7c-1,0-1.6,0.9-1.6,1.9
		c0,1.1,0.6,1.8,1.7,1.8c0.5,0,0.9-0.1,1.2-0.2L34.6,38L34.6,38z M32.6,36.5c0-0.4,0.3-1,0.8-1c0.6,0,0.8,0.5,0.8,1H32.6L32.6,36.5z
		 M38.2,36.5c0-0.8-0.3-1.5-1.4-1.5c-0.5,0-0.9,0.1-1.2,0.3l0.2,0.5c0.2-0.2,0.6-0.2,0.9-0.2c0.7,0,0.7,0.5,0.7,0.8
		c-1.2,0-2,0.4-2,1.3c0,0.6,0.4,1.1,1.1,1.1c0.5,0,0.8-0.2,1-0.5h0l0.1,0.4h0.7c0-0.2-0.1-0.6-0.1-0.9V36.5L38.2,36.5z M37.4,37.5
		c0,0.4-0.3,0.7-0.8,0.7c-0.3,0-0.5-0.2-0.5-0.6c0-0.6,0.7-0.8,1.3-0.8V37.5L37.4,37.5z M39.9,33.4h-0.8v5.3h0.8V33.4L39.9,33.4z
		 M45.1,38h-2v-1.7h1.8v-0.6h-1.8v-1.5H45v-0.6h-2.6v5h2.7V38L45.1,38z M47.8,35.2C47.6,35.1,47.3,35,47,35c-0.8,0-1.3,0.5-1.3,1.1
		c0,0.4,0.3,0.8,0.9,1c0.4,0.2,0.6,0.3,0.6,0.6c0,0.3-0.2,0.5-0.6,0.5c-0.3,0-0.6-0.1-0.8-0.2l-0.2,0.6c0.2,0.1,0.6,0.2,1,0.2
		c0.8,0,1.4-0.4,1.4-1.1c0-0.5-0.3-0.9-0.9-1.1c-0.4-0.2-0.6-0.3-0.6-0.6c0-0.2,0.2-0.4,0.5-0.4c0.3,0,0.5,0.1,0.7,0.2L47.8,35.2
		L47.8,35.2z M48.9,35.1h-0.5v0.6h0.5v1.9c0,0.5,0.1,0.8,0.3,1c0.2,0.2,0.4,0.3,0.7,0.3c0.3,0,0.5,0,0.6-0.1l0-0.6
		c-0.1,0-0.2,0-0.3,0c-0.3,0-0.5-0.2-0.5-0.7v-1.8h0.9v-0.6h-0.9v-0.9l-0.8,0.2V35.1L48.9,35.1z M53.7,36.5c0-0.8-0.3-1.5-1.4-1.5
		c-0.5,0-0.9,0.1-1.2,0.3l0.2,0.5c0.2-0.2,0.6-0.2,0.9-0.2c0.7,0,0.7,0.5,0.7,0.8c-1.2,0-2,0.4-2,1.3c0,0.6,0.4,1.1,1.1,1.1
		c0.5,0,0.8-0.2,1-0.5h0l0.1,0.4h0.7c0-0.2-0.1-0.6-0.1-0.9V36.5L53.7,36.5z M52.9,37.5c0,0.4-0.3,0.7-0.8,0.7
		c-0.3,0-0.5-0.2-0.5-0.6c0-0.6,0.7-0.8,1.3-0.8V37.5L52.9,37.5z M54.8,35.1h-0.5v0.6h0.5v1.9c0,0.5,0.1,0.8,0.3,1
		c0.2,0.2,0.4,0.3,0.7,0.3c0.3,0,0.5,0,0.6-0.1l0-0.6c-0.1,0-0.2,0-0.3,0c-0.3,0-0.5-0.2-0.5-0.7v-1.8h0.9v-0.6h-0.9v-0.9l-0.8,0.2
		V35.1L54.8,35.1z M59.6,38c-0.2,0.1-0.5,0.2-0.9,0.2c-0.6,0-1.1-0.3-1.1-1.1h2.3c0-0.1,0-0.2,0-0.3c0-0.9-0.4-1.7-1.4-1.7
		c-1,0-1.6,0.9-1.6,1.9c0,1.1,0.6,1.8,1.7,1.8c0.5,0,0.9-0.1,1.2-0.2L59.6,38L59.6,38z M57.6,36.5c0-0.4,0.3-1,0.8-1
		c0.6,0,0.8,0.5,0.8,1H57.6L57.6,36.5z"/>
</g>
</svg>
