<?xml version="1.0" encoding="UTF-8"?><!DOCTYPE svg PUBLIC "-//W3C//DTD SVG 1.1//EN" "http://www.w3.org/Graphics/SVG/1.1/DTD/svg11.dtd">
<svg xmlns="http://www.w3.org/2000/svg" width="20" height="20" viewBox="0 0 20 20">
    <path fill="#FFF" fillRule="nonzero" d="M1.667 1.111a.556.556 0 0 0-.556.556v5.555c0 .307.249.556.556.556h5.555a.556.556 0 0 0 .556-.556V1.667a.556.556 0 0 0-.556-.556H1.667zm0-1.111h5.555c.92 0 1.667.746 1.667 1.667v5.555c0 .92-.746 1.667-1.667 1.667H1.667C.747 8.889 0 8.143 0 7.222V1.667C0 .747.746 0 1.667 0zm11.11 1.111a.556.556 0 0 0-.555.556v5.555c0 .307.249.556.556.556h5.555a.556.556 0 0 0 .556-.556V1.667a.556.556 0 0 0-.556-.556h-5.555zm0-1.111h5.556C19.253 0 20 .746 20 1.667v5.555c0 .92-.746 1.667-1.667 1.667h-5.555c-.92 0-1.667-.746-1.667-1.667V1.667c0-.92.746-1.667 1.667-1.667zM1.668 12.222a.556.556 0 0 0-.556.556v5.555c0 .307.249.556.556.556h5.555a.556.556 0 0 0 .556-.556v-5.555a.556.556 0 0 0-.556-.556H1.667zm0-1.11h5.555c.92 0 1.667.745 1.667 1.666v5.555c0 .92-.746 1.667-1.667 1.667H1.667C.747 20 0 19.254 0 18.333v-5.555c0-.92.746-1.667 1.667-1.667zm11.11 1.11a.556.556 0 0 0-.555.556v5.555c0 .307.249.556.556.556h5.555a.556.556 0 0 0 .556-.556v-5.555a.556.556 0 0 0-.556-.556h-5.555zm0-1.11h5.556c.92 0 1.667.745 1.667 1.666v5.555c0 .92-.746 1.667-1.667 1.667h-5.555c-.92 0-1.667-.746-1.667-1.667v-5.555c0-.92.746-1.667 1.667-1.667z"/>
</svg>
