<?xml version="1.0" encoding="UTF-8"?><!DOCTYPE svg PUBLIC "-//W3C//DTD SVG 1.1//EN" "http://www.w3.org/Graphics/SVG/1.1/DTD/svg11.dtd">
<svg xmlns="http://www.w3.org/2000/svg" width="20" height="20" viewBox="0 0 20 20">
    <path fill="#FFF" fill-rule="nonzero" d="M8.862 0c1.031 0 1.833 1.114 1.898 2.471l.004.179v.414h-.763V2.65c0-.968-.484-1.732-1.04-1.814L8.862.829h-6.96c-.567 0-1.079.703-1.134 1.65l-.005.17V17.35c0 .968.484 1.732 1.04 1.814l.099.007h6.96c.567 0 1.079-.703 1.134-1.65l.005-.17v-.415h.763v.414c0 1.385-.755 2.55-1.768 2.644L8.862 20h-6.96C.872 20 .069 18.886.004 17.529L0 17.35V2.65C0 1.265.755.1 1.768.006L1.902 0h6.96zm5.853 4.262l4.745 5.152L20 10l-.54.586-4.745 5.152-.54-.586 4.746-5.153-.148-.16H6.099v-.828H18.01l-3.834-4.163.54-.586z"/>
</svg>
